<?xml version="1.0" encoding="UTF-8"?>
<svg width="18px" height="18px" viewBox="0 0 18 18" version="1.1" xmlns="http://www.w3.org/2000/svg" xmlns:xlink="http://www.w3.org/1999/xlink">
    <title> 编辑</title>
    <g id="New" stroke="none" stroke-width="1" fill="none" fill-rule="evenodd">
        <g id="首页" transform="translate(-346, -108)" stroke="#FFFFFF" stroke-width="1.4">
            <g id="编组-20" transform="translate(16, 95)">
                <g id="编组-10" transform="translate(317, 0)">
                    <g id="-编辑" transform="translate(13, 13)">
                        <path d="M5,0.7 C5.63512746,0.7 6.21012746,0.957436269 6.6263456,1.3736544 C7.04256373,1.78987254 7.3,2.36487254 7.3,3 L7.3,7 L3,7.3 C2.36487254,7.3 1.78987254,7.04256373 1.3736544,6.6263456 C0.957436269,6.21012746 0.7,5.63512746 0.7,5 L0.7,3 C0.7,2.36487254 0.957436269,1.78987254 1.3736544,1.3736544 C1.78987254,0.957436269 2.36487254,0.7 3,0.7 L5,0.7 Z" id="矩形"></path>
                        <path d="M5,10.7 C5.63512746,10.7 6.21012746,10.9574363 6.6263456,11.3736544 C7.04256373,11.7898725 7.3,12.3648725 7.3,13 L7.3,17 L3,17.3 C2.36487254,17.3 1.78987254,17.0425637 1.3736544,16.6263456 C0.957436269,16.2101275 0.7,15.6351275 0.7,15 L0.7,13 C0.7,12.3648725 0.957436269,11.7898725 1.3736544,11.3736544 C1.78987254,10.9574363 2.36487254,10.7 3,10.7 Z" id="矩形备份-22" transform="translate(4, 14) scale(1, -1) translate(-4, -14)"></path>
                        <path d="M15,0.7 C15.6351275,0.7 16.2101275,0.957436269 16.6263456,1.3736544 C17.0425637,1.78987254 17.3,2.36487254 17.3,3 L17.3,5 C17.3,5.63512746 17.0425637,6.21012746 16.6263456,6.6263456 C16.2101275,7.04256373 15.6351275,7.3 15,7.3 L11,7.3 L10.7,3 C10.7,2.36487254 10.9574363,1.78987254 11.3736544,1.3736544 C11.7898725,0.957436269 12.3648725,0.7 13,0.7 Z" id="矩形备份-12"></path>
                        <path d="M15,10.7 C15.6351275,10.7 16.2101275,10.9574363 16.6263456,11.3736544 C17.0425637,11.7898725 17.3,12.3648725 17.3,13 L17.3,15 C17.3,15.6351275 17.0425637,16.2101275 16.6263456,16.6263456 C16.2101275,17.0425637 15.6351275,17.3 15,17.3 L11,17.3 L10.7,13 C10.7,12.3648725 10.9574363,11.7898725 11.3736544,11.3736544 C11.7898725,10.9574363 12.3648725,10.7 13,10.7 Z" id="矩形备份-26" transform="translate(14, 14) scale(1, -1) translate(-14, -14)"></path>
                    </g>
                </g>
            </g>
        </g>
    </g>
</svg>